<?xml version="1.0" encoding="UTF-8"?>
<svg width="14px" height="14px" viewBox="0 0 14 14" version="1.1" xmlns="http://www.w3.org/2000/svg" xmlns:xlink="http://www.w3.org/1999/xlink">
    <!-- Generator: Sketch 51.1 (57501) - http://www.bohemiancoding.com/sketch -->
    <title>Group 3</title>
    <desc>Created with Sketch.</desc>
    <defs></defs>
    <g id="其他" stroke="none" stroke-width="1" fill="none" fill-rule="evenodd">
        <g id="SA-icon" transform="translate(-83.000000, -167.000000)" fill-rule="nonzero">
            <g id="Group-3" transform="translate(83.000000, 167.000000)">
                <g id="presentation">
                    <path d="M6.66666667,12.3333333 C6.48242222,12.3333333 6.33333333,12.1593963 6.33333333,11.9444444 L6.33333333,10.3888889 C6.33333333,10.173937 6.48242222,10 6.66666667,10 C6.85091111,10 7,10.173937 7,10.3888889 L7,11.9444444 C7,12.1593963 6.85091111,12.3333333 6.66666667,12.3333333 Z" id="Shape" fill="#4298F6"></path>
                    <path d="M7.66666667,11.9444444 L7.66666667,10.3888889 C7.66666667,10.173937 7.36848889,10 7,10 L7,12.3333333 C7.36848889,12.3333333 7.66666667,12.1593963 7.66666667,11.9444444 Z" id="Shape" fill="#3583D8"></path>
                    <path d="M12.590708,10.6666667 L1.0759587,10.6666667 C0.849729351,10.6666667 0.666666667,10.4847962 0.666666667,10.2600402 L0.666666667,2.07329317 C0.666666667,1.84853715 0.849729351,1.66666667 1.0759587,1.66666667 L12.590708,1.66666667 C12.8169373,1.66666667 13,1.84853715 13,2.07329317 L13,10.2600402 C13,10.4847962 12.8169373,10.6666667 12.590708,10.6666667 Z" id="Shape" fill="#D7ECF6"></path>
                    <path d="M12.9129794,1.66666667 L7,1.66666667 L7,10.6666667 L12.9129794,10.6666667 C13.145323,10.6666667 13.3333333,10.4847962 13.3333333,10.2600402 L13.3333333,2.07329317 C13.3333333,1.84853715 13.145323,1.66666667 12.9129794,1.66666667 Z" id="Shape" fill="#C1DBE8"></path>
                    <path d="M12.7695312,2.33333333 L1.23046875,2.33333333 C0.551960937,2.33333333 0,1.80999259 0,1.16666667 C0,0.523340741 0.551960937,0 1.23046875,0 L12.7695312,0 C13.4480391,0 14,0.523340741 14,1.16666667 C14,1.80999259 13.4480391,2.33333333 12.7695312,2.33333333 Z" id="Shape" fill="#84B6ED"></path>
                    <path d="M12.7695312,0 L7,0 L7,2.33333333 L12.7695312,2.33333333 C13.4480391,2.33333333 14,1.80999259 14,1.16666667 C14,0.523340741 13.4480391,0 12.7695312,0 Z" id="Shape" fill="#559FF0"></path>
                    <path d="M13.5898437,10.6666667 L0.41015625,10.6666667 C0.183449219,10.6666667 0,10.5175778 0,10.3333333 C0,10.1490889 0.183449219,10 0.41015625,10 L13.5898437,10 C13.8165508,10 14,10.1490889 14,10.3333333 C14,10.5175778 13.8165508,10.6666667 13.5898437,10.6666667 Z" id="Shape" fill="#84B6ED"></path>
                    <path d="M13.5898438,10 L7,10 L7,10.6666667 L13.5898438,10.6666667 C13.8165508,10.6666667 14,10.5175778 14,10.3333333 C14,10.1490889 13.8165508,10 13.5898438,10 Z" id="Shape" fill="#559FF0"></path>
                    <path d="M11.3333333,4.4 L11.3333333,6 C11.3333333,6.22402667 11.1533606,6.4 10.9242424,6.4 C10.6951242,6.4 10.5151515,6.22402667 10.5151515,6 L10.5151515,5.36802667 L7.93785152,7.88 C7.78239697,8.04 7.52063333,8.04 7.36515152,7.88 L6.83333333,7.36 L5.1969697,5.768 L3.02876061,7.87997333 C2.87330606,8.03997333 2.61154242,8.03997333 2.45606061,7.87997333 C2.29242424,7.72797333 2.29242424,7.47202667 2.45606061,7.32 L4.91060606,4.92 C5.06606061,4.76 5.32782424,4.76 5.48330606,4.92 L6.83333333,6.23197333 L7.65151515,7.03197333 L9.93421515,4.8 L9.28787879,4.8 C9.05876061,4.8 8.87878788,4.62402667 8.87878788,4.4 C8.87878788,4.17597333 9.05876061,4 9.28787879,4 L10.9242424,4 C11.1451788,4 11.3333333,4.17597333 11.3333333,4.4 Z" id="Shape" fill="#68D9B1"></path>
                    <path d="M11.3333333,4.40216179 L11.3333333,6.01080894 C11.3333333,6.23604635 11.1466949,6.41297073 10.9090909,6.41297073 C10.6714869,6.41297073 10.4848485,6.23604635 10.4848485,6.01080894 L10.4848485,5.37542013 L8.00952148,7.85229134 C7.84830936,8.01315605 7.52932309,8.06183406 7.36808268,7.90096934 L7,7.53822517 L7,6.41297073 L7.66959635,7.04955507 L9.88239596,4.80432358 L9.21212121,4.80432358 C8.97451717,4.80432358 8.78787879,4.6273992 8.78787879,4.40216179 C8.78787879,4.17692438 8.97451717,4 9.21212121,4 L10.9090909,4 C11.1382101,4 11.3333333,4.17692438 11.3333333,4.40216179 Z" id="Shape" fill="#2DCA93"></path>
                    <g id="Group-2" transform="translate(5.866877, 11.333333)">
                        <path d="M1.16666667,0.333333333 C0.523340741,0.333333333 0,0.856674074 0,1.5 C0,2.14332593 0.523340741,2.66666667 1.16666667,2.66666667 C1.80999259,2.66666667 2.33333333,2.14332593 2.33333333,1.5 C2.33333333,0.856674074 1.80999259,0.333333333 1.16666667,0.333333333 Z M1.16666667,1.88888889 C0.952233333,1.88888889 0.777777778,1.71443333 0.777777778,1.5 C0.777777778,1.28556667 0.952233333,1.11111111 1.16666667,1.11111111 C1.3811,1.11111111 1.55555556,1.28556667 1.55555556,1.5 C1.55555556,1.71443333 1.3811,1.88888889 1.16666667,1.88888889 Z" id="Shape" fill="#84B6ED"></path>
                        <path d="M1.13313802,0.33199056 L1.13313802,1.11755371 C1.43196615,1.11755371 1.56502279,1.28556667 1.56502279,1.5 C1.56502279,1.71443333 1.4181722,1.91479492 1.13313802,1.91479492 L1.13313802,2.65669759 C1.90230306,2.64453125 2.33333333,2.1180013 2.33333333,1.5 C2.33333333,0.881998698 1.78584798,0.323486328 1.13313802,0.33199056 Z" id="Shape" fill="#559FF0"></path>
                    </g>
                </g>
            </g>
        </g>
    </g>
</svg>